<svg xmlns="http://www.w3.org/2000/svg" viewBox="0 0 640 640">
  <rect width="640" height="640" rx="96" fill="#141512"/>
  <g fill="#d98e32" transform="translate(0,200)">
    <path d="M 310 98 C 268 84, 220 66, 174 56 C 118 50, 62 86, 24 130 C 53 129, 90 122, 132 122 C 195 124, 254 136, 314 158 Z"/>
    <path d="M 330 98 C 372 84, 420 66, 466 56 C 522 50, 578 86, 616 130 C 587 129, 550 122, 508 122 C 445 124, 386 136, 326 158 Z"/>
    <path d="M 320 88 C 334 96, 338 122, 333 150 C 330 170, 326 180, 322 188 L 320 184 L 318 188 C 314 180, 310 170, 307 150 C 302 122, 306 96, 320 88 Z"/>
    <path d="M 232 46 C 270 41, 297 38, 313 33 C 325 24, 350 13, 394 13 C 376 29, 355 42, 341 48 C 338 66, 335 86, 333 106 L 307 106 C 311 80, 312 62, 306 52 C 283 50, 257 48, 232 46 Z"/>
  </g>
  <circle cx="291" cy="243" r="4" fill="#141512"/>
</svg>
