<svg xmlns="http://www.w3.org/2000/svg" viewBox="0 0 640 640">
  <rect width="640" height="640" rx="96" fill="#141512"/>
  <g fill="#d98e32" transform="translate(0,200)">
    <path d="M 320 152 L 262 132 L 170 118 L 28 96 L 202 54 L 208 34 L 218 52 L 300 86 L 320 96 Z"/>
    <path d="M 320 152 L 378 132 L 470 118 L 612 96 L 438 54 L 432 34 L 422 52 L 340 86 L 320 96 Z"/>
    <path d="M 320 84 L 348 120 L 320 168 L 292 120 Z"/>
    <path d="M 310 146 L 300 200 L 320 168 Z"/>
    <path d="M 330 146 L 340 200 L 320 168 Z"/>
    <path d="M 243 49 L 323 33 L 358 19 L 342 58 L 303 60 Z"/>
    <path d="M 311 52 L 344 52 L 329 96 L 317 88 Z"/>
  </g>
  <circle cx="305" cy="246" r="4" fill="#141512"/>
</svg>
