<svg xmlns="http://www.w3.org/2000/svg" viewBox="0 0 640 640">
  <rect width="640" height="640" rx="96" fill="#141512"/>
  <g fill="#d98e32" transform="translate(0,200)">
    <path d="M 310 98 C 268 84, 222 67, 192 59 C 191 50, 190 42, 187 36 L 177 51 L 169 39 L 160 52 C 112 48, 60 86, 24 130 C 53 129, 90 122, 132 122 C 166 123, 192 131, 212 147 C 238 132, 282 136, 314 158 Z"/>
    <path d="M 330 98 C 372 84, 418 67, 448 59 C 449 50, 450 42, 453 36 L 463 51 L 471 39 L 480 52 C 528 48, 580 86, 616 130 C 587 129, 550 122, 508 122 C 474 123, 448 131, 428 147 C 402 132, 358 136, 326 158 Z"/>
    <path d="M 320 88 C 334 96, 338 122, 333 148 C 331 156, 327 162, 320 165 C 313 162, 309 156, 307 148 C 302 122, 306 96, 320 88 Z"/>
    <path d="M 318 140 L 304 148 C 300 160, 297 170, 295 180 C 290 184, 286 189, 284 195 C 287 194, 290 192, 293 191 C 292 195, 292 200, 293 204 C 296 200, 299 196, 301 192 C 303 195, 305 197, 307 200 C 309 195, 310 189, 311 184 C 314 170, 316 155, 318 140 Z"/>
    <path d="M 322 140 L 336 148 C 340 160, 343 170, 345 180 C 350 184, 354 189, 356 195 C 353 194, 350 192, 347 191 C 348 195, 348 200, 347 204 C 344 200, 341 196, 339 192 C 337 195, 335 197, 333 200 C 331 195, 330 189, 329 184 C 326 170, 324 155, 322 140 Z"/>
    <path d="M 232 46 C 270 41, 297 38, 313 33 C 325 24, 350 13, 394 13 C 376 29, 355 42, 341 48 C 338 66, 335 86, 333 106 L 307 106 C 311 80, 312 62, 306 52 C 283 50, 257 48, 232 46 Z"/>
  </g>
  <circle cx="291" cy="243" r="4" fill="#141512"/>
</svg>
