<svg xmlns="http://www.w3.org/2000/svg" viewBox="0 0 640 640">
  <rect width="640" height="640" rx="96" fill="#141512"/>
  <g fill="#d98e32" transform="translate(0,200)">
    <path d="M 310 98 C 268 84, 222 67, 192 59 C 191 50, 190 42, 187 36 L 177 51 L 169 39 L 160 52 C 112 48, 60 86, 24 130 C 53 129, 90 122, 132 122 C 166 123, 192 131, 212 147 C 238 132, 282 136, 314 158 Z"/>
    <path d="M 330 98 C 372 84, 418 67, 448 59 C 449 50, 450 42, 453 36 L 463 51 L 471 39 L 480 52 C 528 48, 580 86, 616 130 C 587 129, 550 122, 508 122 C 474 123, 448 131, 428 147 C 402 132, 358 136, 326 158 Z"/>
    <path d="M 320 88 C 334 96, 338 122, 333 150 C 331 164, 329 174, 327 181 L 336 202 L 320 187 L 304 202 L 313 181 C 311 174, 309 164, 307 150 C 302 122, 306 96, 320 88 Z"/>
    <path d="M 232 46 C 270 41, 297 38, 313 33 C 325 24, 350 13, 394 13 C 376 29, 355 42, 341 48 C 338 66, 335 86, 333 106 L 307 106 C 311 80, 312 62, 306 52 C 283 50, 257 48, 232 46 Z"/>
  </g>
  <circle cx="291" cy="243" r="4" fill="#141512"/>
</svg>
