<svg xmlns="http://www.w3.org/2000/svg" viewBox="0 0 640 640">
  <rect width="640" height="640" rx="96" fill="#141512"/>
  <g fill="#d98e32" transform="translate(0,200)">
    <path d="M 310 98 C 268 84, 222 67, 192 59 C 191 50, 190 42, 187 36 L 177 51 L 169 39 L 160 52 C 112 48, 60 86, 24 130 C 53 129, 90 122, 132 122 C 166 123, 192 131, 212 147 C 238 132, 282 136, 314 158 Z"/>
    <path d="M 330 98 C 372 84, 418 67, 448 59 C 449 50, 450 42, 453 36 L 463 51 L 471 39 L 480 52 C 528 48, 580 86, 616 130 C 587 129, 550 122, 508 122 C 474 123, 448 131, 428 147 C 402 132, 358 136, 326 158 Z"/>
    <path d="M 320 86 C 338 94, 344 118, 337 148 C 333 170, 326 188, 320 202 C 314 188, 307 170, 303 148 C 296 118, 302 94, 320 86 Z"/>
    <path d="M 230 46 C 268 39, 296 36, 313 32 C 325 23, 350 13, 394 13 C 376 29, 355 42, 341 48 C 338 66, 335 86, 333 106 L 307 106 C 311 82, 312 64, 307 58 C 284 55, 256 50, 230 46 Z"/>
  </g>
  <circle cx="307" cy="242" r="4" fill="#141512"/>
</svg>
